<?xml version="1.0" encoding="UTF-8"?>
<!DOCTYPE svg PUBLIC "-//W3C//DTD SVG 1.1//EN" "http://www.w3.org/Graphics/SVG/1.1/DTD/svg11.dtd">
<!-- Creator: CorelDRAW 2019 (64-Bit) -->
<svg xmlns="http://www.w3.org/2000/svg" xml:space="preserve" width="20mm" height="20mm" version="1.1" style="shape-rendering:geometricPrecision; text-rendering:geometricPrecision; image-rendering:optimizeQuality; fill-rule:evenodd; clip-rule:evenodd"
viewBox="0 0 2000 2000"
 xmlns:xlink="http://www.w3.org/1999/xlink">
 <defs>
  <style type="text/css">
   <![CDATA[
    .str0 {stroke:#2B2A29;stroke-width:8;stroke-miterlimit:22.9256}
    .str2 {stroke:#FFED00;stroke-width:8;stroke-miterlimit:22.9256}
    .str5 {stroke:#86776F;stroke-width:8;stroke-miterlimit:22.9256}
    .str4 {stroke:#008DD2;stroke-width:8;stroke-miterlimit:22.9256}
    .str1 {stroke:#D6E9D8;stroke-width:3;stroke-miterlimit:22.9256}
    .str3 {stroke:#86776F;stroke-width:35;stroke-linecap:round;stroke-miterlimit:22.9256}
    .str6 {stroke:#B0CB1F;stroke-width:44;stroke-miterlimit:22.9256;stroke-dasharray:87.282474 43.641237}
    .fil5 {fill:none}
    .fil2 {fill:none;fill-rule:nonzero}
    .fil3 {fill:#B2AD81}
    .fil0 {fill:#385D27}
    .fil6 {fill:#2B2A29;fill-rule:nonzero}
    .fil4 {fill:#FBFBFB;fill-rule:nonzero}
    .fil1 {fill:#F7FAF2;fill-rule:nonzero}
    .fil8 {fill:url(#id0)}
    .fil7 {fill:url(#id1)}
   ]]>
  </style>
  <linearGradient id="id0" gradientUnits="userSpaceOnUse" x1="658" y1="914" x2="837" y2="772">
   <stop offset="0" style="stop-opacity:1; stop-color:#097A3B"/>
   <stop offset="1" style="stop-opacity:1; stop-color:#57B039"/>
  </linearGradient>
  <radialGradient id="id1" gradientUnits="userSpaceOnUse" gradientTransform="matrix(-1.59405 0.709855 -0.514038 -1.27524 3318 1467)" cx="1084" cy="983" r="928" fx="1084" fy="983">
   <stop offset="0" style="stop-opacity:1; stop-color:#FEFEFE"/>
   <stop offset="0.839216" style="stop-opacity:1; stop-color:#41772E"/>
   <stop offset="1" style="stop-opacity:1; stop-color:#43A53B"/>
  </radialGradient>
 </defs>
 <g id="Слой_x0020_1">
  <metadata id="CorelCorpID_0Corel-Layer"/>
  <circle class="fil0 str0" cx="999" cy="1007" r="951"/>
  <polygon class="fil1" points="625,397 526,213 650,147 662,168 562,222 593,279 679,232 691,254 605,300 650,384 "/>
  <path id="1" class="fil1" d="M759 218c-6,-34 -1,-62 14,-85 15,-22 37,-36 66,-40 19,-3 37,-1 54,5 17,7 30,17 41,32 11,15 18,33 21,53 3,21 2,40 -4,58 -6,18 -16,32 -30,43 -14,11 -30,18 -48,21 -19,3 -37,1 -54,-6 -17,-7 -30,-18 -41,-33 -10,-15 -17,-31 -20,-49zm28 -4c4,25 14,43 30,55 16,12 34,17 54,13 20,-3 36,-13 47,-30 11,-17 14,-38 10,-64 -3,-17 -8,-31 -16,-42 -8,-12 -18,-20 -30,-25 -12,-5 -25,-7 -38,-4 -19,3 -35,12 -46,28 -12,15 -15,39 -10,70z"/>
  <path id="2" class="fil1" d="M1016 185c5,-34 18,-60 39,-76 21,-17 46,-23 75,-19 19,3 36,10 49,21 14,11 24,26 29,43 6,17 7,36 4,57 -3,21 -10,39 -21,54 -11,15 -25,26 -41,32 -17,6 -34,8 -52,5 -19,-3 -36,-10 -50,-22 -14,-12 -24,-26 -29,-44 -5,-17 -7,-35 -4,-53zm28 5c-4,25 0,45 11,62 11,16 27,26 47,29 21,3 39,-2 54,-14 15,-12 25,-32 29,-58 2,-17 2,-32 -2,-45 -4,-13 -11,-24 -21,-33 -10,-9 -22,-14 -35,-16 -19,-3 -37,1 -53,13 -16,11 -26,32 -31,63z"/>
  <path id="3" class="fil1" d="M1232 327l88 -189 65 30c15,7 25,13 32,18 10,8 17,16 21,26 6,13 8,27 7,43 -1,15 -6,31 -13,48 -7,14 -14,26 -23,36 -9,10 -17,17 -26,22 -9,5 -17,8 -25,9 -8,1 -17,1 -27,-1 -10,-2 -20,-6 -32,-11l-68 -32zm35 -11l40 19c12,6 23,9 31,10 8,1 15,0 21,-2 9,-3 17,-9 25,-17 8,-8 15,-20 22,-34 9,-20 13,-36 11,-50 -2,-14 -6,-24 -14,-32 -5,-6 -16,-12 -31,-19l-40 -18 -67 144z"/>
  <polygon id="4" class="fil2 str1" points="625,397 526,213 650,147 662,168 562,222 593,279 679,232 691,254 605,300 650,384 "/>
  <path id="5" class="fil2 str1" d="M759 218c-6,-34 -1,-62 14,-85 15,-22 37,-36 66,-40 19,-3 37,-1 54,5 17,7 30,17 41,32 11,15 18,33 21,53 3,21 2,40 -4,58 -6,18 -16,32 -30,43 -14,11 -30,18 -48,21 -19,3 -37,1 -54,-6 -17,-7 -30,-18 -41,-33 -10,-15 -17,-31 -20,-49zm28 -4c4,25 14,43 30,55 16,12 34,17 54,13 20,-3 36,-13 47,-30 11,-17 14,-38 10,-64 -3,-17 -8,-31 -16,-42 -8,-12 -18,-20 -30,-25 -12,-5 -25,-7 -38,-4 -19,3 -35,12 -46,28 -12,15 -15,39 -10,70z"/>
  <path id="6" class="fil2 str1" d="M1016 185c5,-34 18,-60 39,-76 21,-17 46,-23 75,-19 19,3 36,10 49,21 14,11 24,26 29,43 6,17 7,36 4,57 -3,21 -10,39 -21,54 -11,15 -25,26 -41,32 -17,6 -34,8 -52,5 -19,-3 -36,-10 -50,-22 -14,-12 -24,-26 -29,-44 -5,-17 -7,-35 -4,-53zm28 5c-4,25 0,45 11,62 11,16 27,26 47,29 21,3 39,-2 54,-14 15,-12 25,-32 29,-58 2,-17 2,-32 -2,-45 -4,-13 -11,-24 -21,-33 -10,-9 -22,-14 -35,-16 -19,-3 -37,1 -53,13 -16,11 -26,32 -31,63z"/>
  <path id="7" class="fil2 str1" d="M1232 327l88 -189 65 30c15,7 25,13 32,18 10,8 17,16 21,26 6,13 8,27 7,43 -1,15 -6,31 -13,48 -7,14 -14,26 -23,36 -9,10 -17,17 -26,22 -9,5 -17,8 -25,9 -8,1 -17,1 -27,-1 -10,-2 -20,-6 -32,-11l-68 -32zm35 -11l40 19c12,6 23,9 31,10 8,1 15,0 21,-2 9,-3 17,-9 25,-17 8,-8 15,-20 22,-34 9,-20 13,-36 11,-50 -2,-14 -6,-24 -14,-32 -5,-6 -16,-12 -31,-19l-40 -18 -67 144z"/>
  <circle class="fil3 str0" cx="999" cy="1007" r="680"/>
  <path class="fil4" d="M184 1432l199 -102 50 80c10,16 16,29 18,39 2,10 0,20 -6,30 -6,10 -14,17 -25,23 -14,7 -29,9 -44,6 -15,-3 -29,-13 -43,-29 1,8 0,15 -1,19 -3,11 -7,22 -14,33l-35 59 -19 -30 27 -45c8,-13 13,-24 17,-31 4,-8 5,-14 6,-19 0,-5 0,-9 -2,-14 -1,-3 -4,-8 -7,-14l-17 -28 -89 45 -15 -24zm126 -33l32 51c7,11 13,19 20,24 6,5 13,7 21,8 7,0 14,-1 21,-4 9,-5 15,-12 17,-21 2,-9 -1,-21 -9,-34l-36 -57 -66 34zm70 146c26,-25 54,-38 83,-40 30,-2 56,8 80,28 15,13 26,28 31,45 6,17 5,34 -1,52 -6,17 -17,34 -32,49 -16,15 -34,26 -53,32 -19,6 -39,7 -58,3 -19,-4 -36,-13 -50,-25 -16,-13 -26,-29 -32,-46 -5,-17 -5,-35 1,-52 6,-17 16,-32 30,-46zm23 20c-19,18 -28,37 -28,57 0,20 8,36 25,50 17,14 36,20 58,19 22,-1 43,-12 63,-31 13,-12 22,-25 26,-38 5,-13 6,-26 2,-38 -4,-13 -11,-23 -22,-33 -16,-13 -34,-20 -56,-20 -21,0 -44,12 -67,34zm90 213l111 -181 75 37c15,8 27,16 34,24 7,8 11,18 11,28 1,10 -2,19 -7,28 -5,8 -12,14 -20,18 -9,5 -19,7 -31,6 10,9 16,19 18,30 2,11 0,22 -7,32 -5,9 -12,15 -20,21 -8,5 -17,8 -25,10 -8,1 -17,0 -27,-2 -10,-2 -22,-7 -34,-13l-77 -38zm91 -92l43 22c12,6 21,9 27,10 8,2 15,1 21,-1 6,-3 11,-7 15,-13 4,-6 5,-12 5,-18 0,-6 -3,-12 -8,-16 -5,-5 -15,-11 -29,-18l-40 -20 -34 55zm-51 84l50 25c9,4 15,7 19,8 7,2 13,3 18,3 6,0 11,-2 16,-5 5,-3 10,-8 13,-13 4,-7 6,-14 5,-21 -1,-7 -4,-13 -10,-18 -6,-5 -15,-11 -28,-18l-46 -23 -38 62zm156 99l83 -193 28 10 -83 193 -28 -10zm79 26l48 -202 31 6 80 181 38 -159 29 5 -48 202 -31 -6 -80 -181 -38 159 -29 -5zm401 -72l-7 -24 94 -22 21 74c-11,14 -24,25 -38,34 -14,9 -29,15 -45,19 -22,5 -43,5 -63,1 -20,-4 -37,-13 -51,-27 -14,-14 -23,-31 -29,-50 -6,-19 -6,-39 -2,-58 4,-19 14,-35 28,-47 15,-12 33,-21 55,-26 16,-4 31,-5 46,-3 14,2 26,6 36,13 10,7 18,16 26,29l-25 13c-6,-9 -13,-16 -19,-21 -7,-5 -15,-8 -25,-9 -10,-1 -21,-1 -32,2 -13,3 -24,8 -33,14 -9,6 -15,13 -20,20 -4,7 -7,15 -8,23 -2,14 -1,28 3,42 5,18 13,32 23,43 10,10 23,17 37,20 15,3 29,3 44,-1 13,-3 25,-8 35,-15 11,-7 19,-14 23,-21l-11 -38 -65 15zm97 -43c-18,-30 -23,-58 -15,-84 8,-26 26,-46 54,-59 19,-9 38,-13 58,-12 20,1 38,6 54,17 16,11 30,25 41,43 11,18 17,37 17,56 0,19 -5,35 -15,50 -11,15 -25,27 -42,35 -19,9 -38,13 -58,12 -20,-1 -38,-7 -54,-17 -16,-11 -29,-24 -39,-40zm28 -13c13,22 30,36 51,42 21,6 41,5 61,-5 20,-10 33,-24 38,-43 5,-19 1,-40 -13,-64 -9,-15 -19,-26 -31,-35 -12,-8 -25,-13 -40,-14 -14,-1 -28,2 -41,8 -19,9 -32,23 -38,41 -7,18 -2,41 15,68zm162 -85c-26,-25 -40,-50 -40,-77 0,-27 11,-50 34,-71 15,-13 32,-22 52,-26 19,-4 38,-3 57,3 19,6 36,17 52,31 16,15 27,31 33,49 6,18 6,35 0,52 -6,17 -16,32 -30,44 -16,14 -33,22 -52,26 -19,4 -39,3 -57,-3 -19,-6 -35,-16 -49,-29zm23 -19c19,18 40,27 61,28 22,1 41,-6 57,-20 16,-14 24,-31 24,-51 -1,-20 -11,-39 -32,-58 -13,-12 -27,-21 -41,-26 -14,-5 -28,-6 -42,-4 -14,3 -27,9 -37,18 -15,13 -24,30 -24,49 -1,19 11,40 35,62zm234 -77l-198 -105 40 -61c9,-14 17,-24 24,-30 9,-9 20,-15 31,-19 15,-5 31,-6 48,-3 17,3 34,9 52,18 15,8 27,17 37,26 10,9 16,19 21,27 4,9 7,18 7,26 1,8 -1,17 -4,27 -3,10 -8,20 -15,30l-42 64zm-8 -36l25 -38c8,-12 13,-22 14,-30 2,-8 2,-15 0,-21 -3,-9 -8,-18 -17,-26 -8,-9 -20,-17 -35,-25 -21,-11 -39,-16 -54,-16 -15,0 -27,4 -37,10 -7,5 -15,14 -24,28l-24 37 151 81z"/>
  <circle class="fil5 str0" cx="999" cy="1007" r="391"/>
  <circle class="fil5 str0" cx="999" cy="1007" r="272"/>
  <circle class="fil5 str0" cx="999" cy="1007" r="509"/>
  <line class="fil5 str0" x1="319" y1="1007" x2="1678" y2= "1007" />
  <line class="fil5 str0" x1="999" y1="327" x2="999" y2= "1686" />
  <g id="_2869448003424">
   <g>
    <path class="fil6" d="M481 1273l135 -175 0 0 0 6 0 6 1 6 1 6 1 6 1 6 1 6 1 5 2 5 2 5 2 5 2 5 2 5 2 5 2 5 3 5 3 5 3 5 3 5 3 4 3 4 3 4 4 4 4 4 4 4 4 4 4 4 4 4 5 4 5 4 5 4 5 3 -220 23zm397 -204l-300 167 -14 -25 300 -167 14 25zm52 -29l-52 29 -14 -25 52 -29 14 25z"/>
   </g>
   <g id="_2869448004416">
    <path class="fil7 str2" d="M990 892c108,-69 250,26 250,144 0,118 -185,227 -243,180 -61,49 -243,-62 -243,-180 0,-118 100,-209 237,-144z"/>
    <path class="fil5 str3" d="M990 892c8,-50 -37,-57 -22,-116"/>
    <path class="fil8 str4" d="M719 748c-75,15 -99,85 -148,109 11,6 12,6 3,3 11,4 13,5 3,3 10,4 10,4 0,0 11,3 13,5 3,3 11,3 12,5 3,3 10,3 11,4 2,2 10,3 11,4 2,2 10,3 12,4 3,3 9,3 10,4 2,2 9,3 10,4 2,2 8,3 8,3 1,1 9,2 10,3 3,2 9,2 10,3 2,2 8,2 10,3 2,2 8,2 9,3 2,2 8,1 10,2 3,2 8,1 10,1 3,2 7,1 8,2 2,2 7,1 8,2 2,2 6,1 6,1 0,0 7,0 8,1 3,1 6,1 7,1 2,1 7,0 8,2 3,3 5,0 5,1 1,0 6,0 7,0 3,2 6,-1 7,0 4,1 5,0 6,0 3,1 5,0 6,0 2,1 5,-1 6,0 3,1 5,0 6,1 4,1 4,-1 6,-1 3,1 4,-1 4,0 2,1 4,0 5,0 3,1 4,-3 6,-1 4,1 21,3 42,4 73,5 66,-1 163,-20 131,-97 27,-59 -75,-59 -143,-74z"/>
    <path class="fil5 str5" d="M577 859c139,-55 289,15 391,-84"/>
   </g>
   <g>
    <path class="fil6" d="M1104 942l-69 38 -14 -25 69 -38 14 25zm436 -243l-436 243 -14 -25 436 -243 14 25zm-210 101l73 -120 211 -118 -75 120 138 -6 -211 118 -137 5z"/>
   </g>
  </g>
  <circle class="fil5 str6" cx="999" cy="1007" r="968"/>
 </g>
</svg>
